<svg aria-hidden="true" style="position: absolute; width: 0; height: 0; overflow: hidden;" version="1.1" xmlns="http://www.w3.org/2000/svg" xmlns:xlink="http://www.w3.org/1999/xlink">
<defs>
<symbol id="icon-arrow_to_down" viewBox="0 0 32 32">
<path stroke-width="4.8" d="M28.8 8l-12.8 12.8-12.8-12.8"></path>
</symbol>
<symbol id="icon-arrow_to_left" viewBox="0 0 32 32">
<path stroke-width="4.8" d="M24 28.8l-12.8-12.8 12.8-12.8"></path>
</symbol>
<symbol id="icon-arrow_to_right" viewBox="0 0 32 32">
<path stroke-width="4.8" d="M8 3.2l12.8 12.8-12.8 12.8"></path>
</symbol>
<symbol id="icon-arrow_to_up" viewBox="0 0 32 32">
<path stroke-width="4.8" d="M3.2 24l12.8-12.8 12.8 12.8"></path>
</symbol>
<!-- /// -->
<symbol id="icon-update" viewBox="0 0 32 32">
 <path d="m 16.0179,7.0002286 c 1.8938,0.004 3.8141,0.59437 5.3141,1.7626 1.0545,1.2148 -0.95476,2.5158004 -1.8597,1.3312004 -2.7242,-1.6483004 -6.5662,-1.0680004 -8.6158,1.3964 -1.0905,1.223 -1.7049,2.8549 -1.6977,4.4932 l 1.8003,0 c -0.96,1.440998 -1.9202,2.880998 -2.8803,4.320998 -0.9602,-1.44 -1.9203,-2.88 -2.8805,-4.319998 l 1.8003,0 c -0.0573,-3.912 2.756,-7.6331004 6.5325,-8.6462004 0.811,-0.2221 1.646,-0.3465 2.487,-0.3378 z m 7.9033,4.6808004 c 0.96016,1.4402 1.9203,2.8805 2.8805,4.320697 l -1.8003,0 c 0.051,3.958501 -2.8341,7.721301 -6.6772,8.681001 -2.5933,0.72418 -5.5256,0.19575 -7.657,-1.4611 -1.0874,-1.235 0.94976,-2.5235 1.8631,-1.3282 2.6394,1.6014 6.3356,1.0935 8.419,-1.1937 1.2066,-1.2432 1.901,-2.9653 1.8917,-4.698001 l -1.8003,0 c 0.96016,-1.440197 1.9203,-2.880497 2.8805,-4.320697 z"/>
</symbol>
<!--  -->
<symbol id="icon-close" viewBox="0 0 32 32">
<path d="M50.85,55.979c-1.364,0-2.646-0.531-3.609-1.495l-15.009-15.01c-0.144-0.141-0.373-0.141-0.516,0.001L16.708,54.484    c-0.964,0.964-2.246,1.495-3.609,1.495c-1.27,0-2.486-0.469-3.425-1.319c-1.004-0.91-1.576-2.183-1.61-3.582    c-0.036-1.48,0.541-2.927,1.583-3.969l14.852-14.852c0.142-0.142,0.142-0.374-0.001-0.517L9.652,16.896    c-2.013-2.013-2.167-5.168-0.351-7.184c0.949-1.053,2.25-1.653,3.663-1.69c1.427-0.044,2.744,0.493,3.744,1.492l15.009,15.01    c0.185,0.184,0.328,0.187,0.514,0.001l15.011-15.01c1.087-1.087,2.583-1.623,4.122-1.469c1.531,0.154,2.903,0.989,3.767,2.292    c1.322,1.995,1.006,4.718-0.751,6.475L39.45,31.741c-0.143,0.143-0.143,0.375,0,0.518l15.009,15.008c1.99,1.99,1.99,5.228,0,7.218    C53.496,55.448,52.214,55.979,50.85,55.979z M31.975,37.37c0.605,0,1.211,0.229,1.671,0.69l15.01,15.01    c1.173,1.173,3.22,1.172,4.389,0c0.587-0.586,0.91-1.365,0.91-2.194c0-0.83-0.323-1.609-0.909-2.195l-15.01-15.009    c-0.921-0.922-0.921-2.422-0.001-3.343l14.931-14.93c1.087-1.087,1.296-2.75,0.497-3.956c-0.537-0.812-1.354-1.312-2.299-1.407    c-0.935-0.092-1.846,0.232-2.508,0.893l-15.01,15.009c-0.891,0.893-2.45,0.895-3.343,0L15.294,10.929    c-0.608-0.608-1.434-0.91-2.277-0.908c-0.859,0.022-1.651,0.389-2.229,1.03c-1.085,1.204-0.96,3.192,0.279,4.431l14.847,14.846    c0.921,0.922,0.921,2.422,0.001,3.343L11.061,48.523c-0.657,0.657-1.021,1.57-0.998,2.505c0.021,0.848,0.359,1.611,0.954,2.149    c1.182,1.071,3.144,1.024,4.277-0.107l15.009-15.01C30.764,37.6,31.369,37.37,31.975,37.37z"/></symbol>
<!-- /// -->
<symbol id="icon-barometer" viewBox="0 0 32 32">
<path d="M18.489 4.121c0.207-0.391 0.324-0.837 0.324-1.307-0.002-1.553-1.26-2.811-2.812-2.813h-0c-1.552 0.002-2.81 1.26-2.812 2.812v0c0 0.472 0.117 0.917 0.324 1.307-6.565 1.179-11.561 6.932-11.561 13.83 0 7.747 6.302 14.050 14.050 14.050s14.050-6.303 14.050-14.050c0-6.898-4.997-12.652-11.561-13.829zM16 1.874c0.493 0.032 0.88 0.439 0.88 0.937s-0.388 0.905-0.878 0.937l-0.003 0c-0.493-0.032-0.88-0.439-0.88-0.937s0.388-0.905 0.878-0.937l0.003-0zM16 30.124c-6.714 0-12.176-5.462-12.176-12.175s5.462-12.176 12.176-12.176 12.176 5.462 12.176 12.176c0 6.713-5.462 12.175-12.176 12.175z"></path>
<path d="M23.333 10.69l-0.040-0.045-0.048-0.042c-1.859-1.841-4.417-2.978-7.24-2.978-0.002 0-0.003 0-0.005 0h0c-0.002 0-0.004 0-0.006 0-2.834 0-5.401 1.146-7.262 2.999l0-0-0.025 0.022-0.018 0.020c-1.862 1.863-3.014 4.435-3.014 7.278 0 0.002 0 0.005 0 0.007v-0c0 0.517 0.421 0.937 0.938 0.937h1.062c0.518 0 0.937-0.42 0.937-0.937s-0.42-0.937-0.937-0.937v0h-0.073c0.19-1.665 0.839-3.15 1.817-4.359l-0.012 0.016 0.052 0.052c0.169 0.17 0.404 0.276 0.663 0.276s0.494-0.105 0.663-0.276l0-0c0.366-0.366 0.366-0.96 0-1.326l-0.050-0.050c1.19-0.959 2.67-1.605 4.289-1.79l0.039-0.004v0.073c0 0.518 0.42 0.937 0.937 0.937s0.937-0.42 0.937-0.937v0-0.073c1.625 0.18 3.112 0.823 4.327 1.795l-0.049 0.049c-0.17 0.17-0.275 0.404-0.275 0.663 0 0.518 0.42 0.937 0.937 0.937 0.259 0 0.493-0.105 0.663-0.275l0.051-0.051c0.963 1.189 1.612 2.669 1.8 4.29l0.004 0.039h-0.083c-0.518 0-0.937 0.42-0.937 0.937s0.42 0.937 0.937 0.937v0h1.076c0.517 0 0.937-0.421 0.936-0.938-0.003-2.828-1.146-5.389-2.994-7.247l0 0z"></path>
<path d="M20.251 13.698c-0.366-0.366-0.96-0.366-1.326 0l-3.915 3.916c-0.355-0.174-0.772-0.276-1.213-0.276-0.069 0-0.137 0.002-0.204 0.007l0.009-0.001c-0.489 0.035-0.872 0.441-0.872 0.935 0 0.518 0.42 0.938 0.938 0.938 0.023 0 0.046-0.001 0.068-0.002l-0.003 0c0.020-0.002 0.043-0.002 0.067-0.002 0.517 0 0.936 0.419 0.936 0.936 0 0.020-0.001 0.039-0.002 0.058l0-0.003c-0.001 0.016-0.002 0.035-0.002 0.054 0 0.518 0.42 0.938 0.938 0.938 0.499 0 0.907-0.389 0.936-0.881l0-0.003c0.003-0.048 0.005-0.104 0.005-0.16 0-0.441-0.102-0.859-0.283-1.23l0.007 0.017 3.915-3.915c0.366-0.366 0.366-0.96 0-1.326zM21.375 24.688h-10.751c-0.518 0-0.937 0.42-0.937 0.937s0.42 0.937 0.937 0.937v0h10.752c0.518 0 0.937-0.42 0.937-0.937s-0.42-0.937-0.937-0.937v0z"></path>
</symbol>
<symbol id="icon-clouds-and-sun" viewBox="0 0 32 32">
<path fill="#fdbf00" style="fill: var(--color2, #fdbf00)" d="M19.218 21.205c-3.847 0-6.994-3.111-7.031-6.967-0.036-3.877 3.090-7.060 6.967-7.095l0.066-0.001c3.847 0 6.994 3.111 7.030 6.967 0.036 3.877-3.090 7.060-6.967 7.095l-0.065 0.001z"></path>
<path fill="#ff8856" style="fill: var(--color3, #ff8856)" d="M19.22 7.142h-0.002v14.063h0.065c3.877-0.037 7.003-3.218 6.967-7.096-0.036-3.856-3.183-6.967-7.031-6.967z"></path>
<path fill="#fdbf00" style="fill: var(--color2, #fdbf00)" d="M19.246 5.806c-0.513 0-0.933-0.414-0.937-0.929l-0.023-2.536c-0-0.003-0-0.006-0-0.009 0-0.515 0.415-0.932 0.929-0.937h0.010c0.513 0 0.933 0.414 0.937 0.929l0.023 2.538c0.005 0.518-0.411 0.942-0.929 0.945h-0.009z"></path>
<path fill="#ff8856" style="fill: var(--color3, #ff8856)" d="M28.525 15.026c-0.001 0-0.003 0-0.005 0-0.518 0-0.938-0.42-0.938-0.938 0-0.516 0.417-0.935 0.933-0.938h0l2.547-0.024c0.001 0 0.003 0 0.005 0 0.518 0 0.938 0.42 0.938 0.938 0 0.516-0.417 0.935-0.933 0.938h-0l-2.548 0.024zM25.851 8.471c-0 0-0.001 0-0.001 0-0.518 0-0.937-0.42-0.937-0.937 0-0.256 0.103-0.488 0.269-0.657l1.778-1.81c0.17-0.172 0.406-0.279 0.667-0.279 0.518 0 0.937 0.42 0.937 0.937 0 0.255-0.102 0.486-0.267 0.655l0-0-1.778 1.811c-0.183 0.187-0.426 0.281-0.668 0.281z"></path>
<path fill="#fdbf00" style="fill: var(--color2, #fdbf00)" d="M12.691 8.592c-0.237 0-0.474-0.090-0.656-0.269l-1.81-1.777c-0.173-0.17-0.281-0.407-0.281-0.669 0-0.518 0.42-0.937 0.937-0.937 0.256 0 0.487 0.102 0.657 0.268l-0-0 1.81 1.778c0.174 0.17 0.281 0.407 0.281 0.669 0 0.518-0.42 0.937-0.937 0.937-0 0-0 0-0.001 0h0z"></path>
<path fill="#ff8856" style="fill: var(--color3, #ff8856)" d="M22.823 6.486c0 0-0 0-0 0-0.518 0-0.937-0.42-0.937-0.937 0-0.127 0.025-0.248 0.071-0.358l-0.002 0.006 0.953-2.352c0.143-0.346 0.478-0.585 0.869-0.585 0.518 0 0.937 0.42 0.937 0.937 0 0.127-0.025 0.248-0.071 0.358l0.002-0.006-0.951 2.352c-0.148 0.366-0.499 0.586-0.869 0.586zM30.309 19.557c-0.117 0-0.236-0.022-0.351-0.069l-2.352-0.953c-0.346-0.143-0.586-0.478-0.586-0.869 0-0.518 0.42-0.938 0.938-0.938 0.127 0 0.248 0.025 0.358 0.071l-0.006-0.002 2.352 0.953c0.347 0.142 0.588 0.478 0.588 0.869 0 0.518-0.42 0.937-0.937 0.937-0.001 0-0.002 0-0.003 0h0z"></path>
<path fill="#fdbf00" style="fill: var(--color2, #fdbf00)" d="M10.706 11.62c-0.118 0-0.238-0.022-0.352-0.069l-2.352-0.953c-0.346-0.143-0.586-0.478-0.586-0.869 0-0.518 0.42-0.938 0.938-0.938 0.127 0 0.248 0.025 0.358 0.071l-0.006-0.002 2.352 0.953c0.347 0.142 0.588 0.478 0.588 0.87 0 0.518-0.42 0.937-0.937 0.937-0.001 0-0.002 0-0.003 0h0z"></path>
<path fill="#ff8856" style="fill: var(--color3, #ff8856)" d="M27.901 11.482c-0.001 0-0.002 0-0.003 0-0.518 0-0.937-0.42-0.937-0.937 0-0.387 0.234-0.718 0.568-0.862l0.006-0.002 2.336-0.99c0.108-0.047 0.234-0.074 0.366-0.074 0.518 0 0.938 0.42 0.938 0.938 0 0.386-0.233 0.717-0.566 0.861l-0.006 0.002-2.337 0.99c-0.119 0.050-0.243 0.074-0.366 0.074z"></path>
<path fill="#fdbf00" style="fill: var(--color2, #fdbf00)" d="M15.702 6.544c-0.366 0-0.712-0.215-0.863-0.572l-0.99-2.337c-0.047-0.108-0.074-0.234-0.074-0.366 0-0.518 0.42-0.937 0.937-0.937 0.386 0 0.717 0.233 0.861 0.566l0.002 0.006 0.99 2.337c0.047 0.108 0.075 0.234 0.075 0.367 0 0.518-0.42 0.937-0.937 0.937-0 0-0 0-0.001 0h0z"></path>
<path fill="#fff4f4" style="fill: var(--color4, #fff4f4)" d="M13.937 30.607c-1.163-0.001-2.231-0.408-3.069-1.087l0.009 0.007c-0.453-0.369-0.833-0.806-1.129-1.301l-0.012-0.022c-0.64 0.4-1.389 0.623-2.16 0.623-1.83-0.005-3.376-1.214-3.889-2.876l-0.008-0.029c-2.073-0.204-3.68-1.938-3.68-4.047v-0c0.003-2.113 1.614-3.848 3.675-4.047l0.017-0.001c0.223-0.707 0.611-1.308 1.12-1.78l0.003-0.002c0.721-0.671 1.691-1.083 2.757-1.083 0.002 0 0.003 0 0.005 0h-0c0.764 0 1.506 0.219 2.143 0.613 0.307-0.524 0.688-0.967 1.134-1.333l0.009-0.007c0.832-0.679 1.905-1.091 3.075-1.092h0c1.117 0 2.209 0.389 3.075 1.092 0.461 0.375 0.848 0.832 1.143 1.34 0.609-0.383 1.349-0.611 2.143-0.613h0c1.028 0 2.009 0.384 2.763 1.082 0.53 0.491 0.914 1.105 1.123 1.783 2.074 0.203 3.682 1.938 3.682 4.049 0 2.107-1.602 3.839-3.654 4.046l-0.017 0.001c-0.521 1.69-2.067 2.899-3.896 2.904h-0.001c-0.801-0.001-1.547-0.233-2.176-0.632l0.017 0.010c-0.308 0.517-0.688 0.954-1.132 1.316l-0.009 0.007c-0.829 0.672-1.897 1.079-3.060 1.080h-0z"></path>
<path fill="#f6efea" style="fill: var(--color5, #f6efea)" d="M26.5 18.827c-0.622-0.551-1.42-0.915-2.299-1l-0.017-0.001c-0.223-0.707-0.611-1.308-1.12-1.78l-0.003-0.002c-0.721-0.671-1.691-1.083-2.757-1.083-0.002 0-0.004 0-0.006 0h0c-0.763 0-1.506 0.219-2.143 0.613-0.307-0.524-0.688-0.967-1.134-1.333l-0.009-0.007c-0.832-0.679-1.905-1.090-3.075-1.091h-0v17.464c1.111 0 2.198-0.384 3.060-1.080 0.453-0.369 0.833-0.806 1.129-1.301l0.012-0.022c0.64 0.4 1.389 0.623 2.16 0.623 1.83-0.005 3.376-1.214 3.889-2.876l0.008-0.029c2.072-0.205 3.678-1.939 3.678-4.048 0-1.211-0.529-2.298-1.369-3.043l-0.004-0.004z"></path>
<path fill="#ff8856" style="fill: var(--color3, #ff8856)" d="M20.16 2.322c-0.005-0.514-0.422-0.929-0.937-0.929 0 0-0 0-0 0h-0.005v4.411l0.027 0.001h0.009c0.514-0.005 0.929-0.422 0.929-0.937 0-0.003-0-0.006-0-0.010v0l-0.024-2.537z"></path>
</symbol>
<symbol id="icon-cloudy" viewBox="0 0 32 32">
<path fill="#eee1dc" style="fill: var(--color6, #eee1dc)" d="M26.889 20.96c-3.319 0-11.015-2.423-14.429-5.445-1.259-1.114-1.897-2.262-1.897-3.41 0.003-2.555 2.075-4.625 4.63-4.625 0.455 0 0.895 0.066 1.31 0.188l-0.033-0.008c0.644-1.828 2.356-3.114 4.368-3.114 0.002 0 0.004 0 0.006 0h-0c1.67 0 3.199 0.909 4.014 2.325 0.116-0.010 0.252-0.016 0.388-0.016 2.557 0 4.63 2.073 4.63 4.63 0 0.312-0.031 0.616-0.090 0.911l0.005-0.030c1.33 0.831 2.203 2.285 2.209 3.943v0.001c0 1.215-0.489 2.35-1.377 3.194-0.81 0.77-1.923 1.276-3.134 1.424-0.17 0.020-0.367 0.032-0.566 0.032-0.012 0-0.024-0-0.036-0h0.002z"></path>
<path fill="#e0d2cd" style="fill: var(--color7, #e0d2cd)" d="M29.79 12.366c0.054-0.265 0.085-0.569 0.085-0.881 0-2.557-2.073-4.63-4.63-4.63-0.137 0-0.272 0.006-0.406 0.018l0.017-0.001c-0.743-1.272-2.042-2.15-3.555-2.302l-0.020-0.002v15.323c2.203 0.673 4.263 1.070 5.606 1.070 0.22 0 0.421-0.011 0.601-0.032 1.211-0.148 2.324-0.655 3.134-1.424 0.849-0.799 1.377-1.93 1.377-3.185 0-0.003 0-0.006 0-0.009v0c-0.006-1.659-0.879-3.114-2.19-3.933l-0.020-0.011z"></path>
<path fill="#fff4f4" style="fill: var(--color4, #fff4f4)" d="M13.321 27.454c-1.119-0.001-2.146-0.392-2.953-1.046l0.009 0.007c-0.424-0.345-0.781-0.753-1.062-1.213l-0.012-0.021c-0.581 0.361-1.286 0.575-2.041 0.576h-0c-1.753-0.005-3.235-1.156-3.738-2.742l-0.008-0.028c-1.983-0.211-3.515-1.874-3.516-3.896v-0c0.003-2.025 1.54-3.69 3.51-3.896l0.017-0.001c0.203-0.64 0.57-1.222 1.073-1.689 0.695-0.646 1.629-1.042 2.656-1.042 0.002 0 0.003 0 0.005 0h-0c0.721 0 1.422 0.201 2.026 0.567 0.292-0.487 0.65-0.901 1.069-1.244l0.008-0.007c0.8-0.653 1.832-1.049 2.957-1.050h0c1.074 0 2.124 0.373 2.956 1.050 0.432 0.351 0.795 0.777 1.077 1.25 0.578-0.357 1.279-0.568 2.029-0.568 1.028 0 1.964 0.397 2.661 1.047l-0.002-0.002c0.503 0.466 0.869 1.048 1.072 1.69 1.987 0.207 3.522 1.873 3.522 3.898 0 2.021-1.53 3.684-3.494 3.895l-0.017 0.002c-0.511 1.614-1.993 2.765-3.745 2.77h-0.001c-0.755-0.001-1.46-0.216-2.058-0.587l0.017 0.010c-0.292 0.48-0.65 0.888-1.066 1.227l-0.009 0.007c-0.797 0.646-1.824 1.038-2.942 1.039h-0z"></path>
<path fill="#f6efea" style="fill: var(--color5, #f6efea)" d="M25.317 16.155c-0.592-0.524-1.35-0.874-2.186-0.96l-0.017-0.001c-0.216-0.669-0.586-1.238-1.070-1.686l-0.003-0.002c-0.695-0.646-1.629-1.042-2.656-1.042-0.002 0-0.005 0-0.007 0h0c-0.72 0-1.421 0.201-2.025 0.567-0.292-0.487-0.65-0.901-1.069-1.244l-0.008-0.007c-0.8-0.653-1.832-1.049-2.957-1.050h-0v16.725c1.119-0.001 2.146-0.392 2.953-1.046l-0.009 0.007c0.429-0.346 0.792-0.765 1.073-1.233 0.608 0.371 1.315 0.576 2.042 0.576 1.753-0.005 3.235-1.156 3.738-2.742l0.008-0.028c1.983-0.212 3.514-1.876 3.514-3.898 0-1.167-0.51-2.214-1.319-2.932l-0.004-0.004z"></path>
</symbol>
<symbol id="icon-cross" viewBox="0 0 32 32">
<path stroke-width="4" d="M2.667 2.667l26.667 26.667M2.667 29.333l26.667-26.667"></path>
</symbol>
<symbol id="icon-humidity" viewBox="0 0 32 32">
<path d="M28.62 9.399c-0.596-1.021-1.234-1.987-1.796-2.719-0.827-1.079-1.317-1.461-1.868-1.461-0.523 0-0.948 0.366-1.426 0.916-0.407 0.479-0.805 1.009-1.173 1.561l-0.039 0.063c-0.561 0.823-1.145 1.792-1.676 2.794l-0.083 0.171c-0.632-1.222-1.118-2.087-1.622-2.939l0.162 0.295c-1.203-2.059-2.486-4.001-3.612-5.47-1.848-2.408-2.543-2.61-3.049-2.61s-1.2 0.201-3.048 2.61c-1.126 1.469-2.409 3.411-3.612 5.47-1.446 2.474-4.808 8.639-4.808 12.451 0.001 6.324 5.146 11.469 11.469 11.469 5.934 0 10.83-4.529 11.41-10.312 0.331 0.064 0.712 0.1 1.101 0.1 3.356 0 6.077-2.718 6.082-6.073v-0c0.001-1.905-1.509-4.775-2.41-6.316zM12.437 30.126c-5.29 0-9.594-4.304-9.594-9.595 0-2.234 1.6-6.358 4.279-11.034 2.392-4.174 4.524-6.857 5.315-7.519 0.792 0.662 2.924 3.346 5.315 7.519 2.68 4.676 4.279 8.8 4.279 11.034 0 5.29-4.304 9.594-9.594 9.594zM24.956 19.915c-0 0-0 0-0 0-0.387 0-0.763-0.052-1.119-0.15l0.030 0.007c-0.207-2.066-1.186-4.634-2.256-6.924 1.042-2.329 2.588-4.623 3.344-5.498 0.477 0.55 1.322 1.709 2.262 3.37 1.214 2.147 1.938 4.014 1.938 4.995-0.003 2.318-1.881 4.197-4.199 4.2h-0z"></path>
<path d="M15.012 16.073c-0.135-0.079-0.296-0.126-0.469-0.126-0.345 0-0.647 0.187-0.809 0.464l-0.002 0.004-4.21 7.292c-0.079 0.135-0.126 0.296-0.126 0.469 0 0.518 0.42 0.938 0.938 0.938 0.345 0 0.647-0.186 0.809-0.464l0.002-0.004 4.21-7.293c0.079-0.134 0.126-0.296 0.126-0.469 0-0.345-0.186-0.646-0.464-0.809l-0.004-0.002zM10.094 17.938c0-0.517-0.421-0.938-0.937-0.938s-0.938 0.421-0.938 0.937 0.421 0.938 0.938 0.938c0.516 0 0.937-0.421 0.937-0.938zM15.406 22.312c-0.516 0-0.937 0.421-0.937 0.938 0 0.516 0.421 0.937 0.938 0.937 0.516 0 0.937-0.421 0.937-0.937s-0.421-0.938-0.937-0.938z"></path>
</symbol>




<symbol id="icon-wind" viewBox="0 0 32 32">
<path d="M25.316 2.643c-1.59 0.002-3.049 0.557-4.198 1.482l0.013-0.010c-0.215 0.173-0.351 0.436-0.351 0.731 0 0.518 0.42 0.938 0.938 0.938 0.223 0 0.428-0.078 0.589-0.208l-0.002 0.001c0.817-0.659 1.867-1.058 3.010-1.060h0c2.651 0 4.809 2.158 4.809 4.809s-2.158 4.809-4.809 4.809h-17.627c-0.518 0-0.938 0.42-0.938 0.938s0.42 0.938 0.938 0.938h17.627c3.686 0 6.684-2.999 6.684-6.683 0-3.686-2.999-6.685-6.684-6.685z"></path>
<path d="M5.892 12.268h10.014c0.518 0 0.937-0.42 0.937-0.937s-0.42-0.937-0.937-0.937v0h-10.014c-0.518 0-0.937 0.42-0.937 0.937s0.42 0.937 0.937 0.937v0zM15.643 17.893h-14.706c-0.518 0-0.938 0.42-0.938 0.938s0.42 0.938 0.938 0.938h14.706c2.129 0.003 3.854 1.728 3.856 3.856v0c-0.003 2.129-1.728 3.854-3.856 3.856h-0c-0.875 0-1.733-0.302-2.414-0.849-0.159-0.129-0.364-0.207-0.587-0.207-0.518 0-0.938 0.42-0.938 0.938 0 0.295 0.136 0.558 0.349 0.73l0.002 0.001c0.974 0.785 2.226 1.26 3.588 1.262h0c3.164-0.004 5.729-2.568 5.732-5.732v-0c-0.004-3.164-2.568-5.727-5.731-5.731h-0zM0.937 12.268h1.266c0.518 0 0.937-0.42 0.937-0.937s-0.42-0.937-0.937-0.937v0h-1.266c-0.518 0-0.937 0.42-0.937 0.937s0.42 0.937 0.937 0.937v0z"></path>
<path d="M12.25 22.563c0-0.518-0.42-0.938-0.937-0.938h-5.625c-0.518 0-0.938 0.42-0.938 0.938s0.42 0.938 0.938 0.938h5.625c0.518 0 0.937-0.42 0.937-0.937z"></path>
</symbol>


</defs>
</svg>
